<?xml version="1.0" encoding="iso-8859-1"?>
<!-- Generator: Adobe Illustrator 18.0.0, SVG Export Plug-In . SVG Version: 6.00 Build 0)  -->
<!DOCTYPE svg PUBLIC "-//W3C//DTD SVG 1.1//EN" "http://www.w3.org/Graphics/SVG/1.1/DTD/svg11.dtd">
<svg version="1.1" id="Capa_1" xmlns="http://www.w3.org/2000/svg" xmlns:xlink="http://www.w3.org/1999/xlink" x="0px" y="0px"
	 viewBox="0 0 490.001 490.001" style="enable-background:new 0 0 490.001 490.001;" xml:space="preserve" fill="#636363">
<g>
	<path d="M315.613,236.268H174.39c-13.5,0-24.482,10.982-24.482,24.482v62.719c0,13.498,10.982,24.48,24.482,24.48h42.6
		l-10.043,99.988c-0.229,2.43-0.254,5.123,0,7.643c2.109,21.014,20.855,36.336,41.867,34.227
		c21.014-2.111,36.336-20.857,34.227-41.869l-10.043-99.988h42.615c13.498,0,24.478-10.982,24.478-24.48V260.75
		C340.091,247.25,329.111,236.268,315.613,236.268z M274.777,325.156c-4.34,0-7.861-3.52-7.861-7.861
		c0-4.344,3.521-7.863,7.861-7.863c4.342,0,7.863,3.52,7.863,7.863C282.64,321.637,279.118,325.156,274.777,325.156z
		 M307.658,325.156c-4.344,0-7.865-3.52-7.865-7.861c0-4.344,3.521-7.863,7.865-7.863c4.344,0,7.863,3.52,7.863,7.863
		C315.521,321.637,312.001,325.156,307.658,325.156z M315.521,287.318c0,4.479-3.631,8.107-8.109,8.107H182.589
		c-4.479,0-8.109-3.629-8.109-8.107v-20.15c0-4.477,3.631-8.108,8.109-8.108h124.822c4.478,0,8.109,3.631,8.109,8.108V287.318z"/>
	<g>
		<path d="M159.154,0h-22.67c-1.383,0-2.504,1.121-2.504,2.504v143.85c0,1.383,1.121,2.504,2.504,2.504h22.67
			c1.381,0,2.502-1.121,2.502-2.504V2.504C161.656,1.121,160.535,0,159.154,0z"/>
		<path d="M189.669,0h-9.59c-1.383,0-2.504,1.121-2.504,2.504v143.85c0,1.383,1.121,2.504,2.504,2.504h9.59
			c1.383,0,2.504-1.121,2.504-2.504V2.504C192.173,1.121,191.052,0,189.669,0z"/>
		<path d="M218.199,0h-9.592c-1.383,0-2.502,1.121-2.502,2.504v143.85c0,1.383,1.119,2.504,2.502,2.504h9.592
			c1.383,0,2.504-1.121,2.504-2.504V2.504C220.702,1.121,219.581,0,218.199,0z"/>
		<path d="M313.058,0h-9.592c-1.383,0-2.504,1.121-2.504,2.504v143.85c0,1.383,1.121,2.504,2.504,2.504h9.592
			c1.381,0,2.502-1.121,2.502-2.504V2.504C315.56,1.121,314.439,0,313.058,0z"/>
		<path d="M286.236,0h-9.592c-1.383,0-2.502,1.121-2.502,2.504v143.85c0,1.383,1.119,2.504,2.502,2.504h9.592
			c1.383,0,2.504-1.121,2.504-2.504V2.504C288.74,1.121,287.618,0,286.236,0z"/>
		<path d="M353.517,0h-22.67c-1.383,0-2.502,1.121-2.502,2.504v143.85c0,1.383,1.119,2.504,2.502,2.504h22.67
			c1.383,0,2.504-1.121,2.504-2.504V2.504C356.021,1.121,354.9,0,353.517,0z"/>
		<path d="M259.933,0h-22.67c-1.383,0-2.504,1.121-2.504,2.504v143.85c0,1.383,1.121,2.504,2.504,2.504h22.67
			c1.383,0,2.502-1.121,2.502-2.504V2.504C262.435,1.121,261.316,0,259.933,0z"/>
	</g>
	<path d="M377.497,167.314c-5.529,0-10.014,4.482-10.014,10.012v4.338H122.515v-4.338c0-5.529-4.482-10.012-10.012-10.012
		c-5.529,0-10.012,4.482-10.012,10.012v28.703c0,5.529,4.482,10.012,10.012,10.012c5.529,0,10.012-4.482,10.012-10.012v-4.34
		h244.969v4.34c0,5.529,4.484,10.012,10.014,10.012c5.529,0,10.012-4.482,10.012-10.012v-28.703
		C387.509,171.797,383.027,167.314,377.497,167.314z"/>
</g>
<g>
</g>
<g>
</g>
<g>
</g>
<g>
</g>
<g>
</g>
<g>
</g>
<g>
</g>
<g>
</g>
<g>
</g>
<g>
</g>
<g>
</g>
<g>
</g>
<g>
</g>
<g>
</g>
<g>
</g>
</svg>
