<?xml version="1.0" encoding="iso-8859-1"?>
<!-- Generator: Adobe Illustrator 18.0.0, SVG Export Plug-In . SVG Version: 6.00 Build 0)  -->
<!DOCTYPE svg PUBLIC "-//W3C//DTD SVG 1.1//EN" "http://www.w3.org/Graphics/SVG/1.1/DTD/svg11.dtd">
<svg version="1.1" id="Capa_1" xmlns="http://www.w3.org/2000/svg" xmlns:xlink="http://www.w3.org/1999/xlink" x="0px" y="0px"
	 viewBox="0 0 491.086 491.086" style="enable-background:new 0 0 491.086 491.086;" xml:space="preserve" fill="#636363">
<g>
	<g>
		<path d="M449.937,238.064c-5.307-4.237-13.046-3.371-17.283,1.936l-63.402,79.405l-12.602-16.803
			c-4.075-5.434-11.784-6.534-17.217-2.46c-5.434,4.075-6.534,11.782-2.46,17.217l22.135,29.514
			c2.282,3.043,5.847,4.859,9.651,4.917c0.063,0.001,0.126,0.002,0.188,0.002c3.736,0,7.273-1.699,9.609-4.624l73.317-91.821
			C456.111,250.039,455.244,242.302,449.937,238.064z"/>
		<path d="M437.148,305.312c-1-0.352-2.117-0.031-2.779,0.799l-24.596,30.803c-0.355,0.442-0.547,0.993-0.547,1.56v24.647h-82.188
			v-82.188h48.7c0.761,0,1.479-0.346,1.953-0.94l19.64-24.596c0.6-0.751,0.716-1.778,0.3-2.645
			c-0.417-0.865-1.292-1.416-2.253-1.416h-73.257c-13.607,0-24.679,11.071-24.679,24.68v92.02c0,13.608,11.071,24.679,24.679,24.679
			h92.021c13.607,0,24.679-11.07,24.679-24.679v-60.364C438.821,306.608,438.15,305.662,437.148,305.312z"/>
	</g>
	<g>
		<path d="M204.108,392.854h-88.411c-6.075,0-11-4.925-11-11s4.925-11,11-11h88.411c6.074,0,11,4.925,11,11
			S210.183,392.854,204.108,392.854z"/>
	</g>
	<path d="M370.369,223.854h25c1.381,0,2.5-1.119,2.5-2.5v-110.25c0-29.016-23.606-52.621-52.622-52.621h-20.975
		c-6.061-12.41-18.803-20.962-33.543-20.962h-36.012C254.718,16.832,237.886,0,217.196,0c-20.689,0-37.521,16.832-37.521,37.521
		h-36.011c-14.741,0-27.482,8.552-33.544,20.962H89.147c-29.016,0-52.622,23.606-52.622,52.621v327.36
		c0,29.016,23.606,52.622,52.622,52.622h256.101c29.016,0,52.622-23.606,52.622-52.622v-16.11c0-1.381-1.119-2.5-2.5-2.5h-25
		c-1.381,0-2.5,1.119-2.5,2.5v16.11c0,12.474-10.148,22.622-22.622,22.622H89.147c-12.474,0-22.622-10.149-22.622-22.622v-327.36
		c0-12.474,10.148-22.621,22.622-22.621h19.793c5.45,13.853,18.938,23.663,34.726,23.663H290.73
		c15.787,0,29.274-9.811,34.725-23.663h19.793c12.474,0,22.622,10.148,22.622,22.621v110.25
		C367.869,222.734,368.988,223.854,370.369,223.854z M217.196,23c8.007,0,14.521,6.514,14.521,14.521
		c0,8.007-6.515,14.52-14.521,14.52s-14.521-6.514-14.521-14.52C202.676,29.514,209.19,23,217.196,23z"/>
	<g>
		<path d="M318.696,153.854H115.697c-6.075,0-11,4.925-11,11c0,6.075,4.925,11,11,11h202.999c6.075,0,11-4.925,11-11
			C329.696,158.778,324.772,153.854,318.696,153.854z"/>
		<path d="M318.696,194.854H115.697c-6.075,0-11,4.925-11,11c0,6.075,4.925,11,11,11h202.999c6.075,0,11-4.925,11-11
			C329.696,199.778,324.772,194.854,318.696,194.854z"/>
	</g>
</g>
<g>
</g>
<g>
</g>
<g>
</g>
<g>
</g>
<g>
</g>
<g>
</g>
<g>
</g>
<g>
</g>
<g>
</g>
<g>
</g>
<g>
</g>
<g>
</g>
<g>
</g>
<g>
</g>
<g>
</g>
</svg>
